<svg xmlns="http://www.w3.org/2000/svg" xmlns:xlink="http://www.w3.org/1999/xlink" width="35" height="25" viewBox="0 0 35 25">
  <defs>
    <clipPath id="clip-password">
      <rect width="35" height="25"/>
    </clipPath>
  </defs>
  <g id="password" clip-path="url(#clip-password)">
    <path id="Icon_awesome-eye" data-name="Icon awesome-eye" d="M33.149,14.771A18.571,18.571,0,0,0,16.675,4.5,18.573,18.573,0,0,0,.2,14.772a1.873,1.873,0,0,0,0,1.69A18.571,18.571,0,0,0,16.675,26.733,18.573,18.573,0,0,0,33.149,16.461,1.873,1.873,0,0,0,33.149,14.771ZM16.675,23.954a8.338,8.338,0,1,1,8.338-8.338A8.338,8.338,0,0,1,16.675,23.954Zm0-13.9a5.518,5.518,0,0,0-1.465.219,2.77,2.77,0,0,1-3.873,3.873,5.546,5.546,0,1,0,5.339-4.093Z" transform="translate(0.65 -3.733)"/>
  </g>
</svg>
